<?xml version="1.0" encoding="UTF-8"?>
<svg width="30px" height="32px" viewBox="0 0 30 32" version="1.1" xmlns="http://www.w3.org/2000/svg" xmlns:xlink="http://www.w3.org/1999/xlink">
    <!-- Generator: sketchtool 53 (72520) - https://sketchapp.com -->
    <title>A8A8A56F-E98A-410E-9573-8754583FFD48</title>
    <desc>Created with sketchtool.</desc>
    <g id="Desktop" stroke="none" stroke-width="1" fill="none" fill-rule="evenodd">
        <g id="HomepageConcore" transform="translate(-205.000000, -3338.000000)" fill-rule="nonzero">
            <g id="Footer" transform="translate(0.000000, 3084.000000)">
                <g id="Group-6">
                    <g transform="translate(205.000000, 103.000000)">
                        <g id="001-facebook" transform="translate(0.000000, 151.081395)">
                            <path d="M28.3440399,5.64073295e-08 L1.65458683,5.64073295e-08 C0.740661673,0.000487095661 -0.000228828819,0.789247152 5.30167234e-08,1.76186457 L5.30167234e-08,30.1582012 C0.000457816688,31.1305751 0.741806067,31.9188481 1.65596015,31.9186046 L28.3440399,31.9186046 C29.2584229,31.9188481 29.9997711,31.1303316 30,30.1574707 C30,30.1572271 30,30.1569836 30,30.1567401 L30,1.76040342 C29.9995423,0.788029569 29.258194,-0.00024346322 28.3440399,5.64073295e-08 Z" id="Path" fill="#484F55"></path>
                            <path d="M20.3288987,31.9186047 L20.3288987,19.3986476 L24.2756837,19.3986476 L24.8669623,14.4981594 L20.3288987,14.4981594 L20.3288987,11.3770622 C20.3288987,9.96150278 20.6963692,8.99696618 22.594466,8.99696618 L25,8.99696618 L25,4.62579986 C24.5814856,4.56627277 23.1455562,4.43313953 21.4747321,4.43313953 C17.9861881,4.43313953 15.5986696,6.70949536 15.5986696,10.8917064 L15.5986696,14.4981594 L11.6666667,14.4981594 L11.6666667,19.3986476 L15.5986696,19.3986476 L15.5986696,31.9186047 L20.3288987,31.9186047 Z" id="Path" fill="#181B1E"></path>
                        </g>
                    </g>
                </g>
            </g>
        </g>
    </g>
</svg>