<?xml version="1.0" encoding="UTF-8"?>
<svg width="30px" height="32px" viewBox="0 0 30 32" version="1.1" xmlns="http://www.w3.org/2000/svg" xmlns:xlink="http://www.w3.org/1999/xlink">
    <!-- Generator: sketchtool 53 (72520) - https://sketchapp.com -->
    <title>07C561F1-4135-422D-B35F-CA6242F9F2F2</title>
    <desc>Created with sketchtool.</desc>
    <g id="Desktop" stroke="none" stroke-width="1" fill="none" fill-rule="evenodd">
        <g id="HomepageConcore" transform="translate(-265.000000, -3338.000000)" fill="#484F55" fill-rule="nonzero">
            <g id="Footer" transform="translate(0.000000, 3084.000000)">
                <g id="Group-6">
                    <g transform="translate(205.000000, 103.000000)">
                        <g id="002-linked-in-square-button" transform="translate(60.000000, 151.081395)">
                            <path d="M27.7799504,0 L2.22249642,0 C0.994991269,0 0,1.02805189 0,2.28880223 L0,29.6364109 C0,30.8932229 0.994991269,31.9186047 2.22249642,31.9186047 L27.7787584,31.9186047 C29.0075183,31.9186047 30,30.8932229 30,29.6364109 L30,2.28880223 C30,1.02805189 29.0074556,0 27.7799504,0 Z M9.09746636,26.7172001 L4.56626897,26.7172001 L4.56626897,12.3099217 L9.0975291,12.3099217 L9.0975291,26.7172001 L9.09746636,26.7172001 Z M6.82873067,10.3442673 L6.79874102,10.3442673 C5.2774879,10.3442673 4.29372706,9.2297712 4.29372706,7.85193736 C4.29372706,6.4355207 5.30747754,5.35960743 6.85746552,5.35960743 C8.40870829,5.35960743 9.36247948,6.4355207 9.39121433,7.85193736 C9.39246913,9.2297712 8.40996309,10.3442673 6.82873067,10.3442673 Z M25.433731,26.7172001 L20.9112545,26.7172001 L20.9112545,19.011517 C20.9112545,17.0751001 20.2462748,15.7438593 18.6062552,15.7438593 C17.3475056,15.7438593 16.6112534,16.640209 16.2875158,17.5099912 C16.1687493,17.8052365 16.1375048,18.2374576 16.1375048,18.6710136 L16.1375048,26.7171334 L11.6037351,26.7172001 C11.6037351,26.7172001 11.6612048,13.6584513 11.6037351,12.309855 L16.1375048,12.309855 L16.1375048,14.352675 C16.7325296,13.3724845 17.8100237,11.9694183 20.2162224,11.9694183 C23.2011962,11.9694183 25.433731,14.0295272 25.433731,18.4555373 L25.433731,26.7172001 L25.433731,26.7172001 Z M16.1208047,14.4325088 C16.1268047,14.4092083 16.1367047,14.3859077 16.1626047,14.3604792 L16.1626047,14.4325088 L16.1208047,14.4325088 L16.1208047,14.4325088 Z" id="LinkedIn__x28_alt_x29__3_"></path>
                        </g>
                    </g>
                </g>
            </g>
        </g>
    </g>
</svg>