<?xml version="1.0" encoding="UTF-8"?>
<svg width="30px" height="32px" viewBox="0 0 30 32" version="1.1" xmlns="http://www.w3.org/2000/svg" xmlns:xlink="http://www.w3.org/1999/xlink">
    <!-- Generator: sketchtool 53 (72520) - https://sketchapp.com -->
    <title>E14279F8-B984-4256-A408-8CAA2E25FA8C</title>
    <desc>Created with sketchtool.</desc>
    <g id="Desktop" stroke="none" stroke-width="1" fill="none" fill-rule="evenodd">
        <g id="HomepageConcore" transform="translate(-325.000000, -3338.000000)" fill="#484F55" fill-rule="nonzero">
            <g id="Footer" transform="translate(0.000000, 3084.000000)">
                <g id="Group-6">
                    <g transform="translate(205.000000, 103.000000)">
                        <g id="002-instagram-logo" transform="translate(120.000000, 151.081395)">
                            <path d="M23.0769231,8.59347048 C22.4411538,8.59347048 21.9230769,8.04226073 21.9230769,7.36583184 L21.9230769,4.91055456 C21.9230769,4.23412567 22.4411538,3.68291592 23.0769231,3.68291592 L25.3846154,3.68291592 C26.0203846,3.68291592 26.5384615,4.23412567 26.5384615,4.91055456 L26.5384615,7.36583184 C26.5384615,8.04226073 26.0203846,8.59347048 25.3846154,8.59347048 L23.0769231,8.59347048 Z" id="Path"></path>
                            <path d="M15,11.2795438 C14.1623077,11.2795438 13.3892308,11.5410309 12.7234615,11.9707044 C12.9311538,11.9019566 13.1469231,11.856534 13.3742308,11.856534 C14.6065385,11.856534 15.6046154,12.9184414 15.6046154,14.2307871 C15.6046154,15.5394499 14.6065385,16.6038126 13.3742308,16.6038126 C12.1419231,16.6038126 11.1438462,15.5406775 11.1438462,14.2307871 C11.1438462,13.986487 11.1888462,13.7569186 11.2523077,13.5371713 C10.8461538,14.2455188 10.6015385,15.0680367 10.6015385,15.9593023 C10.6015385,18.5459369 12.5688462,20.6402885 15.0011538,20.6402885 C17.43,20.6402885 19.4007692,18.5471646 19.4007692,15.9593023 C19.4007692,13.3714401 17.4288462,11.2795438 15,11.2795438 Z" id="Path"></path>
                            <path d="M15,8.59347048 C18.8226923,8.59347048 21.9230769,11.8909079 21.9230769,15.9593023 C21.9230769,20.0276968 18.8215385,23.3251342 15,23.3251342 C11.1773077,23.3251342 8.07692308,20.0276968 8.07692308,15.9593023 C8.07692308,11.8909079 11.1773077,8.59347048 15,8.59347048 L15,8.59347048 Z M15,6.1381932 C9.91038462,6.1381932 5.76923077,10.5441883 5.76923077,15.9593023 C5.76923077,21.3744164 9.91038462,25.7804114 15,25.7804114 C20.0896154,25.7804114 24.2307692,21.3744164 24.2307692,15.9593023 C24.2307692,10.5441883 20.0896154,6.1381932 15,6.1381932 L15,6.1381932 Z" id="Shape"></path>
                            <path d="M24.375,0 L5.625,0 C2.51769231,0 0,2.67870751 0,5.98473837 L0,25.9338663 C0,29.2398971 2.51769231,31.9186047 5.625,31.9186047 L24.375,31.9186047 C27.4823077,31.9186047 30,29.2398971 30,25.9338663 L30,5.98473837 C30,2.67870751 27.4823077,0 24.375,0 Z M27.6923077,11.0487478 L20.1496154,11.0487478 C21.2492308,12.3537276 21.9230769,14.0699665 21.9230769,15.9593023 C21.9230769,20.0276968 18.8215385,23.3251342 15,23.3251342 C11.1773077,23.3251342 8.07692308,20.0276968 8.07692308,15.9593023 C8.07692308,14.0699665 8.75076923,12.3525 9.85038462,11.0487478 L2.30769231,11.0487478 L2.30769231,5.98473837 C2.30769231,4.03893113 3.79615385,2.45527728 5.625,2.45527728 L24.375,2.45527728 C26.205,2.45527728 27.6923077,4.03893113 27.6923077,5.98473837 L27.6923077,11.0487478 Z" id="Shape"></path>
                        </g>
                    </g>
                </g>
            </g>
        </g>
    </g>
</svg>